<?xml version="1.0" encoding="UTF-8" standalone="no"?>
<!DOCTYPE svg PUBLIC "-//W3C//DTD SVG 1.1//EN"
 "http://www.w3.org/Graphics/SVG/1.1/DTD/svg11.dtd">
<!-- Generated by graphviz version 9.0.0 (0)
 -->
<!-- Pages: 1 -->
<svg width="1110pt" height="1061pt"
 viewBox="0.00 0.00 1109.99 1060.96" xmlns="http://www.w3.org/2000/svg" xmlns:xlink="http://www.w3.org/1999/xlink">
<g id="graph0" class="graph" transform="scale(1 1) rotate(0) translate(4 1056.96)">
<polygon fill="white" stroke="none" points="-4,4 -4,-1056.96 1105.99,-1056.96 1105.99,4 -4,4"/>
<!-- 0 -->
<g id="node1" class="node">
<title>0</title>
<ellipse fill="lightgrey" stroke="black" cx="235" cy="-175.25" rx="57" ry="57"/>
<ellipse fill="none" stroke="black" cx="235" cy="-175.25" rx="61" ry="61"/>
<text text-anchor="middle" x="235" y="-170.57" font-family="Times,serif" font-size="14.00">D 1.0000</text>
</g>
<!-- 29 -->
<g id="node30" class="node">
<title>29</title>
<polygon fill="lightgrey" stroke="black" points="414.12,-78.25 335.87,-78.25 335.87,0 414.12,0 414.12,-78.25"/>
<text text-anchor="middle" x="375" y="-34.45" font-family="Times,serif" font-size="14.00">x 0.6145</text>
</g>
<!-- 0&#45;&gt;29 -->
<g id="edge31" class="edge">
<title>0&#45;&gt;29</title>
<path fill="none" stroke="black" d="M278.52,-132.54C294.11,-117.61 311.75,-100.72 327.64,-85.49"/>
<polygon fill="black" stroke="black" points="329.88,-88.19 334.68,-78.75 325.04,-83.14 329.88,-88.19"/>
</g>
<!-- 1 -->
<g id="node2" class="node">
<title>1</title>
<ellipse fill="lightgrey" stroke="black" cx="375" cy="-175.25" rx="57" ry="57"/>
<ellipse fill="none" stroke="black" cx="375" cy="-175.25" rx="61" ry="61"/>
<text text-anchor="middle" x="375" y="-170.57" font-family="Times,serif" font-size="14.00">D 1.0000</text>
</g>
<!-- 1&#45;&gt;29 -->
<g id="edge32" class="edge">
<title>1&#45;&gt;29</title>
<path fill="none" stroke="black" d="M375,-113.86C375,-105.91 375,-97.85 375,-90.1"/>
<polygon fill="black" stroke="black" points="378.5,-90.18 375,-80.18 371.5,-90.18 378.5,-90.18"/>
</g>
<!-- 2 -->
<g id="node3" class="node">
<title>2</title>
<ellipse fill="lightgrey" stroke="black" cx="269" cy="-447.49" rx="57" ry="57"/>
<ellipse fill="none" stroke="black" cx="269" cy="-447.49" rx="61" ry="61"/>
<text text-anchor="middle" x="269" y="-442.81" font-family="Times,serif" font-size="14.00">D 0.2000</text>
</g>
<!-- 26 -->
<g id="node27" class="node">
<title>26</title>
<polygon fill="lightgrey" stroke="black" points="445.12,-350.49 366.87,-350.49 366.87,-272.24 445.12,-272.24 445.12,-350.49"/>
<text text-anchor="middle" x="406" y="-306.69" font-family="Times,serif" font-size="14.00">x 0.0775</text>
</g>
<!-- 2&#45;&gt;26 -->
<g id="edge25" class="edge">
<title>2&#45;&gt;26</title>
<path fill="none" stroke="black" d="M312.34,-404.05C327.03,-389.67 343.5,-373.55 358.49,-358.87"/>
<polygon fill="black" stroke="black" points="360.87,-361.44 365.56,-351.95 355.97,-356.44 360.87,-361.44"/>
</g>
<!-- 3 -->
<g id="node4" class="node">
<title>3</title>
<ellipse fill="lightgrey" stroke="black" cx="474" cy="-719.73" rx="57" ry="57"/>
<ellipse fill="none" stroke="black" cx="474" cy="-719.73" rx="61" ry="61"/>
<text text-anchor="middle" x="474" y="-715.05" font-family="Times,serif" font-size="14.00">D 0.2500</text>
</g>
<!-- 22 -->
<g id="node23" class="node">
<title>22</title>
<polygon fill="lightgrey" stroke="black" points="445.12,-622.73 366.87,-622.73 366.87,-544.48 445.12,-544.48 445.12,-622.73"/>
<text text-anchor="middle" x="406" y="-578.93" font-family="Times,serif" font-size="14.00">x 0.2300</text>
</g>
<!-- 3&#45;&gt;22 -->
<g id="edge17" class="edge">
<title>3&#45;&gt;22</title>
<path fill="none" stroke="black" d="M446.73,-664.95C441.41,-654.45 435.86,-643.51 430.63,-633.19"/>
<polygon fill="black" stroke="black" points="433.86,-631.82 426.21,-624.48 427.61,-634.98 433.86,-631.82"/>
</g>
<!-- 4 -->
<g id="node5" class="node">
<title>4</title>
<ellipse fill="lightgrey" stroke="black" cx="201" cy="-991.97" rx="57" ry="57"/>
<ellipse fill="none" stroke="black" cx="201" cy="-991.97" rx="61" ry="61"/>
<text text-anchor="middle" x="201" y="-987.29" font-family="Times,serif" font-size="14.00">D 0.6000</text>
</g>
<!-- 14 -->
<g id="node15" class="node">
<title>14</title>
<polygon fill="lightgrey" stroke="black" points="244.12,-894.97 165.87,-894.97 165.87,-816.72 244.12,-816.72 244.12,-894.97"/>
<text text-anchor="middle" x="205" y="-851.17" font-family="Times,serif" font-size="14.00">x 0.1575</text>
</g>
<!-- 4&#45;&gt;14 -->
<g id="edge2" class="edge">
<title>4&#45;&gt;14</title>
<path fill="none" stroke="black" d="M202.8,-930.58C203.03,-922.64 203.27,-914.57 203.5,-906.83"/>
<polygon fill="black" stroke="black" points="207,-907 203.8,-896.9 200,-906.79 207,-907"/>
</g>
<!-- 15 -->
<g id="node16" class="node">
<title>15</title>
<polygon fill="lightgrey" stroke="black" points="342.12,-894.97 263.87,-894.97 263.87,-816.72 342.12,-816.72 342.12,-894.97"/>
<text text-anchor="middle" x="303" y="-851.17" font-family="Times,serif" font-size="14.00">x 0.6000</text>
</g>
<!-- 4&#45;&gt;15 -->
<g id="edge4" class="edge">
<title>4&#45;&gt;15</title>
<path fill="none" stroke="black" d="M237.53,-942.93C247.1,-930.34 257.41,-916.79 266.95,-904.24"/>
<polygon fill="black" stroke="black" points="269.56,-906.6 272.82,-896.52 263.98,-902.36 269.56,-906.6"/>
</g>
<!-- 5 -->
<g id="node6" class="node">
<title>5</title>
<ellipse fill="lightgrey" stroke="black" cx="621" cy="-991.97" rx="57" ry="57"/>
<ellipse fill="none" stroke="black" cx="621" cy="-991.97" rx="61" ry="61"/>
<text text-anchor="middle" x="621" y="-987.29" font-family="Times,serif" font-size="14.00">D 0.4000</text>
</g>
<!-- 16 -->
<g id="node17" class="node">
<title>16</title>
<polygon fill="lightgrey" stroke="black" points="660.12,-894.97 581.87,-894.97 581.87,-816.72 660.12,-816.72 660.12,-894.97"/>
<text text-anchor="middle" x="621" y="-851.17" font-family="Times,serif" font-size="14.00">x 0.3200</text>
</g>
<!-- 5&#45;&gt;16 -->
<g id="edge5" class="edge">
<title>5&#45;&gt;16</title>
<path fill="none" stroke="black" d="M621,-930.58C621,-922.64 621,-914.57 621,-906.83"/>
<polygon fill="black" stroke="black" points="624.5,-906.9 621,-896.9 617.5,-906.9 624.5,-906.9"/>
</g>
<!-- 6 -->
<g id="node7" class="node">
<title>6</title>
<ellipse fill="lightgrey" stroke="black" cx="761" cy="-991.97" rx="57" ry="57"/>
<ellipse fill="none" stroke="black" cx="761" cy="-991.97" rx="61" ry="61"/>
<text text-anchor="middle" x="761" y="-987.29" font-family="Times,serif" font-size="14.00">D 0.8000</text>
</g>
<!-- 6&#45;&gt;16 -->
<g id="edge6" class="edge">
<title>6&#45;&gt;16</title>
<path fill="none" stroke="black" d="M717.47,-949.27C701.88,-934.34 684.24,-917.44 668.35,-902.21"/>
<polygon fill="black" stroke="black" points="670.96,-899.86 661.31,-895.47 666.11,-904.92 670.96,-899.86"/>
</g>
<!-- 19 -->
<g id="node20" class="node">
<title>19</title>
<polygon fill="lightgrey" stroke="black" points="918.12,-894.97 839.87,-894.97 839.87,-816.72 918.12,-816.72 918.12,-894.97"/>
<text text-anchor="middle" x="879" y="-851.17" font-family="Times,serif" font-size="14.00">x 0.4200</text>
</g>
<!-- 6&#45;&gt;19 -->
<g id="edge12" class="edge">
<title>6&#45;&gt;19</title>
<path fill="none" stroke="black" d="M800.94,-945.56C812.9,-931.97 826.03,-917.04 838.06,-903.38"/>
<polygon fill="black" stroke="black" points="840.4,-906.01 844.38,-896.19 835.15,-901.39 840.4,-906.01"/>
</g>
<!-- 7 -->
<g id="node8" class="node">
<title>7</title>
<ellipse fill="lightgrey" stroke="black" cx="61" cy="-991.97" rx="57" ry="57"/>
<ellipse fill="none" stroke="black" cx="61" cy="-991.97" rx="61" ry="61"/>
<text text-anchor="middle" x="61" y="-987.29" font-family="Times,serif" font-size="14.00">D 0.7500</text>
</g>
<!-- 7&#45;&gt;14 -->
<g id="edge1" class="edge">
<title>7&#45;&gt;14</title>
<path fill="none" stroke="black" d="M105.37,-949.63C121.85,-934.29 140.6,-916.82 157.36,-901.22"/>
<polygon fill="black" stroke="black" points="159.36,-904.13 164.29,-894.75 154.59,-899.01 159.36,-904.13"/>
</g>
<!-- 8 -->
<g id="node9" class="node">
<title>8</title>
<ellipse fill="lightgrey" stroke="black" cx="341" cy="-991.97" rx="57" ry="57"/>
<ellipse fill="none" stroke="black" cx="341" cy="-991.97" rx="61" ry="61"/>
<text text-anchor="middle" x="341" y="-987.29" font-family="Times,serif" font-size="14.00">D 0.3500</text>
</g>
<!-- 8&#45;&gt;14 -->
<g id="edge3" class="edge">
<title>8&#45;&gt;14</title>
<path fill="none" stroke="black" d="M297.96,-948.53C283.39,-934.16 267.03,-918.03 252.15,-903.35"/>
<polygon fill="black" stroke="black" points="254.71,-900.96 245.14,-896.43 249.8,-905.95 254.71,-900.96"/>
</g>
<!-- 18 -->
<g id="node19" class="node">
<title>18</title>
<polygon fill="lightgrey" stroke="black" points="520.12,-894.97 441.87,-894.97 441.87,-816.72 520.12,-816.72 520.12,-894.97"/>
<text text-anchor="middle" x="481" y="-851.17" font-family="Times,serif" font-size="14.00">x 0.0875</text>
</g>
<!-- 8&#45;&gt;18 -->
<g id="edge9" class="edge">
<title>8&#45;&gt;18</title>
<path fill="none" stroke="black" d="M384.52,-949.27C400.11,-934.34 417.75,-917.44 433.64,-902.21"/>
<polygon fill="black" stroke="black" points="435.88,-904.92 440.68,-895.47 431.04,-899.86 435.88,-904.92"/>
</g>
<!-- 9 -->
<g id="node10" class="node">
<title>9</title>
<ellipse fill="lightgrey" stroke="black" cx="824" cy="-447.49" rx="57" ry="57"/>
<ellipse fill="none" stroke="black" cx="824" cy="-447.49" rx="61" ry="61"/>
<text text-anchor="middle" x="824" y="-442.81" font-family="Times,serif" font-size="14.00">D 0.8000</text>
</g>
<!-- 27 -->
<g id="node28" class="node">
<title>27</title>
<polygon fill="lightgrey" stroke="black" points="726.12,-350.49 647.87,-350.49 647.87,-272.24 726.12,-272.24 726.12,-350.49"/>
<text text-anchor="middle" x="687" y="-306.69" font-family="Times,serif" font-size="14.00">x 0.5370</text>
</g>
<!-- 9&#45;&gt;27 -->
<g id="edge27" class="edge">
<title>9&#45;&gt;27</title>
<path fill="none" stroke="black" d="M780.65,-404.05C765.96,-389.67 749.49,-373.55 734.5,-358.87"/>
<polygon fill="black" stroke="black" points="737.02,-356.44 727.43,-351.95 732.12,-361.44 737.02,-356.44"/>
</g>
<!-- 10 -->
<g id="node11" class="node">
<title>10</title>
<ellipse fill="lightgrey" stroke="black" cx="756" cy="-719.73" rx="57" ry="57"/>
<ellipse fill="none" stroke="black" cx="756" cy="-719.73" rx="61" ry="61"/>
<text text-anchor="middle" x="756" y="-715.05" font-family="Times,serif" font-size="14.00">D 0.3000</text>
</g>
<!-- 23 -->
<g id="node24" class="node">
<title>23</title>
<polygon fill="lightgrey" stroke="black" points="726.12,-622.73 647.87,-622.73 647.87,-544.48 726.12,-544.48 726.12,-622.73"/>
<text text-anchor="middle" x="687" y="-578.93" font-family="Times,serif" font-size="14.00">x 0.2512</text>
</g>
<!-- 10&#45;&gt;23 -->
<g id="edge19" class="edge">
<title>10&#45;&gt;23</title>
<path fill="none" stroke="black" d="M728.33,-664.95C722.93,-654.45 717.3,-643.51 711.99,-633.19"/>
<polygon fill="black" stroke="black" points="715.19,-631.77 707.51,-624.48 708.97,-634.97 715.19,-631.77"/>
</g>
<!-- 11 -->
<g id="node12" class="node">
<title>11</title>
<ellipse fill="lightgrey" stroke="black" cx="901" cy="-991.97" rx="57" ry="57"/>
<ellipse fill="none" stroke="black" cx="901" cy="-991.97" rx="61" ry="61"/>
<text text-anchor="middle" x="901" y="-987.29" font-family="Times,serif" font-size="14.00">D 0.7500</text>
</g>
<!-- 17 -->
<g id="node18" class="node">
<title>17</title>
<polygon fill="lightgrey" stroke="black" points="800.12,-894.97 721.87,-894.97 721.87,-816.72 800.12,-816.72 800.12,-894.97"/>
<text text-anchor="middle" x="761" y="-851.17" font-family="Times,serif" font-size="14.00">x 0.7500</text>
</g>
<!-- 11&#45;&gt;17 -->
<g id="edge7" class="edge">
<title>11&#45;&gt;17</title>
<path fill="none" stroke="black" d="M857.47,-949.27C841.88,-934.34 824.24,-917.44 808.35,-902.21"/>
<polygon fill="black" stroke="black" points="810.96,-899.86 801.31,-895.47 806.11,-904.92 810.96,-899.86"/>
</g>
<!-- 11&#45;&gt;19 -->
<g id="edge11" class="edge">
<title>11&#45;&gt;19</title>
<path fill="none" stroke="black" d="M891.22,-931.36C889.84,-922.99 888.45,-914.46 887.11,-906.31"/>
<polygon fill="black" stroke="black" points="890.59,-905.88 885.51,-896.58 883.68,-907.02 890.59,-905.88"/>
</g>
<!-- 12 -->
<g id="node13" class="node">
<title>12</title>
<ellipse fill="lightgrey" stroke="black" cx="481" cy="-991.97" rx="57" ry="57"/>
<ellipse fill="none" stroke="black" cx="481" cy="-991.97" rx="61" ry="61"/>
<text text-anchor="middle" x="481" y="-987.29" font-family="Times,serif" font-size="14.00">D 0.2500</text>
</g>
<!-- 12&#45;&gt;18 -->
<g id="edge8" class="edge">
<title>12&#45;&gt;18</title>
<path fill="none" stroke="black" d="M481,-930.58C481,-922.64 481,-914.57 481,-906.83"/>
<polygon fill="black" stroke="black" points="484.5,-906.9 481,-896.9 477.5,-906.9 484.5,-906.9"/>
</g>
<!-- 13 -->
<g id="node14" class="node">
<title>13</title>
<ellipse fill="lightgrey" stroke="black" cx="1041" cy="-991.97" rx="57" ry="57"/>
<ellipse fill="none" stroke="black" cx="1041" cy="-991.97" rx="61" ry="61"/>
<text text-anchor="middle" x="1041" y="-987.29" font-family="Times,serif" font-size="14.00">D 0.7000</text>
</g>
<!-- 13&#45;&gt;19 -->
<g id="edge10" class="edge">
<title>13&#45;&gt;19</title>
<path fill="none" stroke="black" d="M995.23,-951.39C987.19,-944.54 978.87,-937.52 971,-930.97 956.89,-919.25 941.41,-906.67 927.24,-895.26"/>
<polygon fill="black" stroke="black" points="929.77,-892.81 919.79,-889.28 925.39,-898.27 929.77,-892.81"/>
</g>
<!-- 25 -->
<g id="node26" class="node">
<title>25</title>
<ellipse fill="lightgrey" stroke="black" cx="406" cy="-447.49" rx="57.52" ry="57.52"/>
<text text-anchor="middle" x="406" y="-442.81" font-family="Times,serif" font-size="14.00">+ 0.3875</text>
</g>
<!-- 14&#45;&gt;25 -->
<g id="edge24" class="edge">
<title>14&#45;&gt;25</title>
<path fill="none" stroke="black" d="M214.59,-816.51C225.4,-776.14 244.79,-711.29 270,-658.73 296.67,-603.09 335.58,-544.52 364.95,-503.37"/>
<polygon fill="black" stroke="black" points="367.75,-505.47 370.75,-495.31 362.07,-501.38 367.75,-505.47"/>
</g>
<!-- 21 -->
<g id="node22" class="node">
<title>21</title>
<ellipse fill="lightgrey" stroke="black" cx="337" cy="-719.73" rx="57.52" ry="57.52"/>
<text text-anchor="middle" x="337" y="-715.05" font-family="Times,serif" font-size="14.00">+ 0.9200</text>
</g>
<!-- 15&#45;&gt;21 -->
<g id="edge15" class="edge">
<title>15&#45;&gt;21</title>
<path fill="none" stroke="black" d="M312.74,-816.41C315.09,-807.15 317.66,-796.98 320.23,-786.85"/>
<polygon fill="black" stroke="black" points="323.57,-787.93 322.63,-777.37 316.78,-786.21 323.57,-787.93"/>
</g>
<!-- 16&#45;&gt;21 -->
<g id="edge16" class="edge">
<title>16&#45;&gt;21</title>
<path fill="none" stroke="black" d="M581.52,-837.35C565.39,-830.5 546.46,-822.83 529,-816.72 474.43,-797.62 454.58,-808.71 404,-780.72 397.81,-777.3 391.71,-773.21 385.87,-768.8"/>
<polygon fill="black" stroke="black" points="388.11,-766.1 378.11,-762.59 383.74,-771.57 388.11,-766.1"/>
</g>
<!-- 20 -->
<g id="node21" class="node">
<title>20</title>
<ellipse fill="lightgrey" stroke="black" cx="619" cy="-719.73" rx="57.52" ry="57.52"/>
<text text-anchor="middle" x="619" y="-715.05" font-family="Times,serif" font-size="14.00">+ 0.8375</text>
</g>
<!-- 17&#45;&gt;20 -->
<g id="edge13" class="edge">
<title>17&#45;&gt;20</title>
<path fill="none" stroke="black" d="M721.44,-817.49C705.15,-802.1 686.09,-784.1 668.86,-767.82"/>
<polygon fill="black" stroke="black" points="671.34,-765.35 661.67,-761.03 666.53,-770.44 671.34,-765.35"/>
</g>
<!-- 18&#45;&gt;20 -->
<g id="edge14" class="edge">
<title>18&#45;&gt;20</title>
<path fill="none" stroke="black" d="M520.54,-816.41C536.01,-801.38 553.91,-783.98 570.17,-768.18"/>
<polygon fill="black" stroke="black" points="572.19,-771.1 576.92,-761.62 567.31,-766.08 572.19,-771.1"/>
</g>
<!-- 24 -->
<g id="node25" class="node">
<title>24</title>
<ellipse fill="lightgrey" stroke="black" cx="687" cy="-447.49" rx="57.52" ry="57.52"/>
<text text-anchor="middle" x="687" y="-442.81" font-family="Times,serif" font-size="14.00">+ 0.6713</text>
</g>
<!-- 19&#45;&gt;24 -->
<g id="edge22" class="edge">
<title>19&#45;&gt;24</title>
<path fill="none" stroke="black" d="M872.39,-816.38C864.58,-775.91 849.58,-710.97 826,-658.73 800.3,-601.82 760.06,-543.02 729.47,-502.13"/>
<polygon fill="black" stroke="black" points="732.44,-500.25 723.62,-494.38 726.85,-504.47 732.44,-500.25"/>
</g>
<!-- 20&#45;&gt;23 -->
<g id="edge20" class="edge">
<title>20&#45;&gt;23</title>
<path fill="none" stroke="black" d="M644.7,-668.02C650.52,-656.55 656.68,-644.4 662.45,-633.02"/>
<polygon fill="black" stroke="black" points="665.53,-634.69 666.93,-624.18 659.28,-631.52 665.53,-634.69"/>
</g>
<!-- 21&#45;&gt;22 -->
<g id="edge18" class="edge">
<title>21&#45;&gt;22</title>
<path fill="none" stroke="black" d="M363.08,-668.02C368.98,-656.55 375.24,-644.4 381.09,-633.02"/>
<polygon fill="black" stroke="black" points="384.17,-634.67 385.64,-624.18 377.95,-631.47 384.17,-634.67"/>
</g>
<!-- 22&#45;&gt;25 -->
<g id="edge23" class="edge">
<title>22&#45;&gt;25</title>
<path fill="none" stroke="black" d="M406,-544.17C406,-535.59 406,-526.23 406,-516.84"/>
<polygon fill="black" stroke="black" points="409.5,-516.94 406,-506.94 402.5,-516.94 409.5,-516.94"/>
</g>
<!-- 23&#45;&gt;24 -->
<g id="edge21" class="edge">
<title>23&#45;&gt;24</title>
<path fill="none" stroke="black" d="M687,-544.17C687,-535.59 687,-526.23 687,-516.84"/>
<polygon fill="black" stroke="black" points="690.5,-516.94 687,-506.94 683.5,-516.94 690.5,-516.94"/>
</g>
<!-- 24&#45;&gt;27 -->
<g id="edge28" class="edge">
<title>24&#45;&gt;27</title>
<path fill="none" stroke="black" d="M687,-389.61C687,-380.47 687,-371.08 687,-362.13"/>
<polygon fill="black" stroke="black" points="690.5,-362.19 687,-352.19 683.5,-362.19 690.5,-362.19"/>
</g>
<!-- 25&#45;&gt;26 -->
<g id="edge26" class="edge">
<title>25&#45;&gt;26</title>
<path fill="none" stroke="black" d="M406,-389.61C406,-380.47 406,-371.08 406,-362.13"/>
<polygon fill="black" stroke="black" points="409.5,-362.19 406,-352.19 402.5,-362.19 409.5,-362.19"/>
</g>
<!-- 28 -->
<g id="node29" class="node">
<title>28</title>
<ellipse fill="lightgrey" stroke="black" cx="512" cy="-175.25" rx="57.52" ry="57.52"/>
<text text-anchor="middle" x="512" y="-170.57" font-family="Times,serif" font-size="14.00">+ 0.6145</text>
</g>
<!-- 26&#45;&gt;28 -->
<g id="edge29" class="edge">
<title>26&#45;&gt;28</title>
<path fill="none" stroke="black" d="M436.37,-271.93C446.81,-258.73 458.68,-243.7 469.88,-229.53"/>
<polygon fill="black" stroke="black" points="472.36,-232.04 475.81,-222.03 466.87,-227.7 472.36,-232.04"/>
</g>
<!-- 27&#45;&gt;28 -->
<g id="edge30" class="edge">
<title>27&#45;&gt;28</title>
<path fill="none" stroke="black" d="M647.72,-280.27C623.74,-261.89 592.74,-238.13 566.42,-217.95"/>
<polygon fill="black" stroke="black" points="568.59,-215.21 558.52,-211.9 564.33,-220.76 568.59,-215.21"/>
</g>
<!-- 28&#45;&gt;29 -->
<g id="edge33" class="edge">
<title>28&#45;&gt;29</title>
<path fill="none" stroke="black" d="M471.26,-134.37C455.95,-119.38 438.4,-102.2 422.53,-86.66"/>
<polygon fill="black" stroke="black" points="425.07,-84.25 415.48,-79.75 420.17,-89.25 425.07,-84.25"/>
</g>
</g>
</svg>
